<?xml version="1.0" encoding="utf-8"?>
<!-- Generator: Adobe Illustrator 22.1.0, SVG Export Plug-In . SVG Version: 6.00 Build 0)  -->
<svg version="1.1" id="Art" xmlns="http://www.w3.org/2000/svg" xmlns:xlink="http://www.w3.org/1999/xlink" x="0px" y="0px"
	 viewBox="0 0 500 500" style="enable-background:new 0 0 500 500;" xml:space="preserve">
<style type="text/css">
	.st0{fill:none;stroke:#000000;stroke-width:10;}
</style>
<path class="st0" d="M424.4,385c17.1-17.3,25.6-38.4,25.6-63.4c0-21-6-39.2-18.1-54.8c-12.1-15.6-27.5-25.7-46.2-30.4
	c5.4-16.9,11.6-34,18.6-51.2c7-17.3,16.2-38.7,27.6-64.4l-76.4-31.5c-22.1,43.3-39.2,78.8-51.3,106.5
	c-12.1,27.7-20.6,51.2-25.6,70.5c-5,19.3-7.5,37.7-7.5,55.3c0,25.7,8.5,47,25.6,63.9c17.1,16.9,38.3,25.4,63.8,25.4
	C386,410.8,407.3,402.2,424.4,385z M203.3,385c17.1-17.3,25.6-38.4,25.6-63.4c0-21-6-39.2-18.1-54.8c-12.1-15.6-27.5-25.7-46.2-30.4
	c5.4-16.9,11.6-34,18.6-51.2c7-17.3,16.2-38.7,27.6-64.4l-76.4-31.5c-22.1,43.3-39.2,78.8-51.3,106.5
	c-12.1,27.7-20.6,51.2-25.6,70.5c-5,19.3-7.5,37.7-7.5,55.3c0,25.7,8.5,47,25.6,63.9c17.1,16.9,38.3,25.4,63.8,25.4
	C164.9,410.8,186.2,402.2,203.3,385z"/>
</svg>
